<svg width="44" height="44" viewBox="0 0 44 44" fill="none" xmlns="http://www.w3.org/2000/svg">
<path d="M28.4865 34.8315L27.9535 37.1387C27.5443 38.9048 26.0359 40.1837 24.2524 40.3205L23.9351 40.3326H20.0636C18.2496 40.3326 16.6624 39.1503 16.1276 37.4425L16.0443 37.1358L15.512 34.8315H28.4865ZM22.0002 3.66846C29.341 3.66846 35.2918 9.61933 35.2918 16.9601C35.2918 20.8771 33.5766 24.4645 30.2219 27.6681C30.1572 27.7299 30.1121 27.8093 30.0919 27.8964L29.1245 32.0815H23.3752V19.7089C23.3752 18.9495 22.7595 18.3339 22.0002 18.3339C21.2408 18.3339 20.6252 18.9495 20.6252 19.7089V32.0815H14.8758L13.9115 27.8967C13.8914 27.8095 13.8461 27.7301 13.7813 27.6681C10.4248 24.4645 8.7085 20.8771 8.7085 16.9601C8.7085 9.61933 14.6594 3.66846 22.0002 3.66846ZM20.6252 12.3763V15.1264C20.6252 15.8858 21.2408 16.5014 22.0002 16.5014C22.7595 16.5014 23.3752 15.8858 23.3752 15.1264V12.3763C23.3752 11.6169 22.7595 11.0013 22.0002 11.0013C21.2408 11.0013 20.6252 11.6169 20.6252 12.3763ZM29.8474 15.0628C29.3104 14.5258 28.4399 14.5258 27.9029 15.0628L25.9583 17.0074C25.4213 17.5443 25.4213 18.4149 25.9583 18.9519C26.4953 19.4889 27.366 19.4889 27.9029 18.9519L29.8474 17.0073C30.3844 16.4704 30.3844 15.5998 29.8474 15.0628ZM16.0974 15.0628C15.5605 14.5258 14.6898 14.5258 14.1529 15.0628C13.6159 15.5998 13.6159 16.4704 14.1529 17.0073L16.0975 18.9519C16.6344 19.4889 17.505 19.4889 18.042 18.9519C18.579 18.4149 18.579 17.5443 18.042 17.0074L16.0974 15.0628Z" fill="url(#paint0_linear_243_329)"/>
<defs>
<linearGradient id="paint0_linear_243_329" x1="22.0002" y1="3.66846" x2="22.0002" y2="40.3326" gradientUnits="userSpaceOnUse">
<stop stop-color="#705FD5"/>
<stop offset="1" stop-color="#38B6B6"/>
</linearGradient>
</defs>
</svg>
